# xmcd
#
# Track frame offsets:
#	150
#	18812
#	32825
#	47733
#	64494
#	83289
#	106984
#	128214
#	142421
#	168920
#	188391
#	205141
#	222653
#	241724
#	259972
#	280133
#	294116
#
# Disc length: 4165 seconds
#
# Revision: 0
# Processed by: cddbd v1.5.2PL0 Copyright (c) Steve Scherf et al.
# Submitted via: SynApp - FreeCDDB Version: 2.3
#
DISCID=f2104311
DTITLE=John Denver - Songs Of John Denver (e.Z.)
DYEAR=2005
DGENRE=Country
TTITLE0=John Denver - Some Days Are Diamonds
TTITLE1=John Denver - Annie´s Song
TTITLE2=John Denver - Take Me Home, Country Roads
TTITLE3=John Denver - Calypso
TTITLE4=John Denver - Leaving On A Jetplane
TTITLE5=John Denver - Sunshine On My Shoulder
TTITLE6=John Denver - Rocky Mountain High
TTITLE7=John Denver - Dreams
TTITLE8=John Denver - Farewell Andromeda
TTITLE9=John Denver - Fly Away
TTITLE10=John Denver - Goodbye Again
TTITLE11=John Denver - I Want To Live
TTITLE12=John Denver - Islands
TTITLE13=John Denver - Looking For Space
TTITLE14=John Denver - My Sweet Lady
TTITLE15=John Denver - This Old Guitar
TTITLE16=John Denver - Windsong
EXTD=
EXTT0=
EXTT1=
EXTT2=
EXTT3=
EXTT4=
EXTT5=
EXTT6=
EXTT7=
EXTT8=
EXTT9=
EXTT10=
EXTT11=
EXTT12=
EXTT13=
EXTT14=
EXTT15=
EXTT16=
PLAYORDER=
